<svg xmlns="http://www.w3.org/2000/svg" style="display:none" aria-hidden="true">

<symbol id="shield-code" viewBox="0 0 64 64">
    <path d="M32 4 54 14v15c0 16-9 26-22 31C19 55 10 45 10 29V14L32 4Z" fill="none" stroke="currentColor" stroke-width="4" stroke-linejoin="round"/>
    <path d="m25 25-7 7 7 7M39 25l7 7-7 7M35 22l-6 20" fill="none" stroke="currentColor" stroke-width="4" stroke-linecap="round" stroke-linejoin="round"/>
  </symbol>

<symbol id="robot" viewBox="0 0 64 64"><rect x="13" y="18" width="38" height="30" rx="8" fill="none" stroke="currentColor" stroke-width="4"/><path d="M32 18V8M24 34h0M40 34h0M24 44h16M17 28H9M55 28h-8" fill="none" stroke="currentColor" stroke-width="4" stroke-linecap="round"/></symbol>

<symbol id="hook" viewBox="0 0 64 64">
    <path d="M22 8v15c0 7 5 12 12 12h4c7 0 12 5 12 12s-5 11-12 11-12-5-12-12" fill="none" stroke="currentColor" stroke-width="4" stroke-linecap="round"/>
    <circle cx="22" cy="8" r="4" fill="currentColor"/><path d="M15 46h22" fill="none" stroke="currentColor" stroke-width="4" stroke-linecap="round"/>
  </symbol>

<symbol id="checklist" viewBox="0 0 64 64">
    <rect x="15" y="10" width="36" height="48" rx="5" fill="none" stroke="currentColor" stroke-width="4"/>
    <path d="M24 24l4 4 8-9M24 38l4 4 8-9M24 51h18" fill="none" stroke="currentColor" stroke-width="4" stroke-linecap="round" stroke-linejoin="round"/>
    <path d="M25 10V7h16v3" fill="none" stroke="currentColor" stroke-width="4" stroke-linecap="round"/>
  </symbol>

<symbol id="doc-search" viewBox="0 0 64 64">
    <path d="M15 7h25l10 10v18" fill="none" stroke="currentColor" stroke-width="4" stroke-linejoin="round"/>
    <path d="M15 7v50h20" fill="none" stroke="currentColor" stroke-width="4" stroke-linecap="round"/>
    <path d="M40 7v12h10M23 27h16M23 37h10" fill="none" stroke="currentColor" stroke-width="4" stroke-linecap="round" stroke-linejoin="round"/>
    <circle cx="43" cy="45" r="9" fill="none" stroke="currentColor" stroke-width="4"/>
    <path d="m50 52 8 8" fill="none" stroke="currentColor" stroke-width="4" stroke-linecap="round"/>
  </symbol>

<symbol id="ci-check" viewBox="0 0 64 64">
    <circle cx="32" cy="32" r="24" fill="none" stroke="currentColor" stroke-width="4"/>
    <path d="m20 33 8 8 17-20" fill="none" stroke="currentColor" stroke-width="5" stroke-linecap="round" stroke-linejoin="round"/>
  </symbol>

<symbol id="diff-lines" viewBox="0 0 64 64">
    <path d="M13 16h25M13 29h38M13 42h23" fill="none" stroke="currentColor" stroke-width="4" stroke-linecap="round"/>
    <path d="M46 40h12M52 34v12M46 20h12" fill="none" stroke="currentColor" stroke-width="4" stroke-linecap="round"/>
  </symbol>

<symbol id="gauge" viewBox="0 0 64 64">
    <path d="M12 46a22 22 0 0 1 40 0" fill="none" stroke="currentColor" stroke-width="4" stroke-linecap="round"/>
    <path d="M18 46h28M20 31l-5-5M44 31l5-5M32 24v-8" fill="none" stroke="currentColor" stroke-width="4" stroke-linecap="round"/>
    <path d="M32 46 45 33" fill="none" stroke="currentColor" stroke-width="5" stroke-linecap="round"/>
    <circle cx="32" cy="46" r="3" fill="currentColor"/>
  </symbol>

<symbol id="file-ruler" viewBox="0 0 64 64">
    <path d="M15 7h25l10 10v40H15V7Z" fill="none" stroke="currentColor" stroke-width="4" stroke-linejoin="round"/>
    <path d="M40 7v12h10M24 31h16M24 41h12" fill="none" stroke="currentColor" stroke-width="4" stroke-linecap="round" stroke-linejoin="round"/>
    <path d="M12 53h40M18 49v8M28 51v6M38 49v8M48 51v6" fill="none" stroke="currentColor" stroke-width="4" stroke-linecap="round"/>
  </symbol>

<symbol id="gate" viewBox="0 0 64 64"><path d="M32 6 52 16v15c0 14-8 22-20 27C20 53 12 45 12 31V16L32 6Z" fill="none" stroke="currentColor" stroke-width="4" stroke-linejoin="round"/><path d="M23 32h18M32 23v18" fill="none" stroke="currentColor" stroke-width="4" stroke-linecap="round"/></symbol>

<symbol id="ruff" viewBox="0 0 64 64"><path d="m20 33-8 8 8 8M44 33l8 8-8 8M38 26 26 54" fill="none" stroke="currentColor" stroke-width="4" stroke-linecap="round" stroke-linejoin="round"/><path d="M17 14h30" fill="none" stroke="currentColor" stroke-width="4" stroke-linecap="round"/></symbol>

<symbol id="layers" viewBox="0 0 64 64">
    <path d="M32 8 55 20 32 32 9 20 32 8Z" fill="none" stroke="currentColor" stroke-width="4" stroke-linejoin="round"/>
    <path d="m15 31 17 9 17-9M15 42l17 9 17-9" fill="none" stroke="currentColor" stroke-width="4" stroke-linecap="round" stroke-linejoin="round"/>
  </symbol>

<symbol id="repair" viewBox="0 0 64 64"><path d="M18 47 47 18M42 13l9 9M14 51l10-2-8-8-2 10Z" fill="none" stroke="currentColor" stroke-width="4" stroke-linejoin="round"/><path d="M19 17h-6M23 10l-3 5M49 45h6M43 54l3-5" fill="none" stroke="currentColor" stroke-width="4" stroke-linecap="round"/></symbol>

<symbol id="docs" viewBox="0 0 64 64"><path d="M16 8h22l10 10v38H16V8Z" fill="none" stroke="currentColor" stroke-width="4" stroke-linejoin="round"/><path d="M38 8v12h10M24 32h16M24 42h16" fill="none" stroke="currentColor" stroke-width="4" stroke-linecap="round"/></symbol>

<symbol id="clock" viewBox="0 0 64 64"><circle cx="32" cy="34" r="22" fill="none" stroke="currentColor" stroke-width="4"/><path d="M32 20v15l10 5M24 7h16M48 13l5 5" fill="none" stroke="currentColor" stroke-width="4" stroke-linecap="round"/></symbol>

<symbol id="module-tree" viewBox="0 0 64 64">
    <rect x="10" y="9" width="18" height="14" rx="3" fill="none" stroke="currentColor" stroke-width="4"/>
    <rect x="36" y="9" width="18" height="14" rx="3" fill="none" stroke="currentColor" stroke-width="4"/>
    <rect x="23" y="41" width="18" height="14" rx="3" fill="none" stroke="currentColor" stroke-width="4"/>
    <path d="M19 23v8h26v-8M32 31v10" fill="none" stroke="currentColor" stroke-width="4" stroke-linecap="round" stroke-linejoin="round"/>
  </symbol>

<symbol id="comment-check" viewBox="0 0 64 64">
    <path d="M12 13h40a6 6 0 0 1 6 6v23a6 6 0 0 1-6 6H30l-14 9v-9h-4a6 6 0 0 1-6-6V19a6 6 0 0 1 6-6Z" fill="none" stroke="currentColor" stroke-width="4" stroke-linejoin="round"/>
    <path d="m22 31 6 6 14-15" fill="none" stroke="currentColor" stroke-width="4" stroke-linecap="round" stroke-linejoin="round"/>
  </symbol>

<symbol id="flask" viewBox="0 0 64 64"><path d="M25 9h14M28 9v17L14 50a6 6 0 0 0 5 9h26a6 6 0 0 0 5-9L36 26V9" fill="none" stroke="currentColor" stroke-width="4" stroke-linecap="round" stroke-linejoin="round"/><path d="M20 46h24" fill="none" stroke="currentColor" stroke-width="4" stroke-linecap="round"/></symbol>

<symbol id="branch-graph" viewBox="0 0 64 64">
    <circle cx="17" cy="47" r="6" fill="none" stroke="currentColor" stroke-width="4"/>
    <circle cx="32" cy="18" r="6" fill="none" stroke="currentColor" stroke-width="4"/>
    <circle cx="48" cy="47" r="6" fill="none" stroke="currentColor" stroke-width="4"/>
    <path d="M20 42 29 24M35 24l10 18M23 47h19" fill="none" stroke="currentColor" stroke-width="4" stroke-linecap="round"/>
  </symbol>

<symbol id="list-search" viewBox="0 0 64 64">
    <rect x="10" y="10" width="34" height="44" rx="5" fill="none" stroke="currentColor" stroke-width="4"/>
    <path d="M19 23h16M19 34h14M19 45h9" fill="none" stroke="currentColor" stroke-width="4" stroke-linecap="round"/>
    <circle cx="44" cy="44" r="8" fill="none" stroke="currentColor" stroke-width="4"/>
    <path d="m50 50 7 7" fill="none" stroke="currentColor" stroke-width="4" stroke-linecap="round"/>
  </symbol>

<symbol id="cube" viewBox="0 0 64 64"><path d="M32 6 54 18v28L32 58 10 46V18L32 6Z" fill="none" stroke="currentColor" stroke-width="4" stroke-linejoin="round"/><path d="M10 18l22 13 22-13M32 31v27" fill="none" stroke="currentColor" stroke-width="4" stroke-linejoin="round"/></symbol>

<symbol id="security" viewBox="0 0 64 64"><path d="M32 7 52 17v15c0 13-8 21-20 26C20 53 12 45 12 32V17L32 7Z" fill="none" stroke="currentColor" stroke-width="4" stroke-linejoin="round"/><path d="M23 32h18" fill="none" stroke="currentColor" stroke-width="4" stroke-linecap="round"/></symbol>

<symbol id="spark" viewBox="0 0 64 64"><path d="M32 8l5 17 17 7-17 7-5 17-5-17-17-7 17-7 5-17ZM50 6l2 7 7 3-7 3-2 7-2-7-7-3 7-3 2-7Z" fill="none" stroke="currentColor" stroke-width="3" stroke-linejoin="round"/></symbol>

<symbol id="package-lock" viewBox="0 0 64 64">
    <path d="M32 6 54 18v18L32 48 10 36V18L32 6Z" fill="none" stroke="currentColor" stroke-width="4" stroke-linejoin="round"/>
    <path d="M10 18l22 12 22-12M32 30v18" fill="none" stroke="currentColor" stroke-width="4"/>
    <rect x="38" y="39" width="18" height="15" rx="3" fill="none" stroke="currentColor" stroke-width="4"/>
    <path d="M42 39v-5a5 5 0 0 1 10 0v5" fill="none" stroke="currentColor" stroke-width="4" stroke-linecap="round"/>
  </symbol>

<symbol id="key" viewBox="0 0 64 64"><circle cx="24" cy="24" r="12" fill="none" stroke="currentColor" stroke-width="4"/><path d="m33 33 20 20M43 43l7-7M48 48l6-6" fill="none" stroke="currentColor" stroke-width="4" stroke-linecap="round"/></symbol>

<symbol id="search-code" viewBox="0 0 64 64">
    <circle cx="27" cy="27" r="15" fill="none" stroke="currentColor" stroke-width="4"/>
    <path d="m38 38 14 14M22 25l-4 4 4 4M32 25l4 4-4 4" fill="none" stroke="currentColor" stroke-width="4" stroke-linecap="round" stroke-linejoin="round"/>
  </symbol>

<symbol id="certificate" viewBox="0 0 64 64">
    <path d="M12 10h40v33H12V10Z" fill="none" stroke="currentColor" stroke-width="4" stroke-linejoin="round"/>
    <path d="M21 22h22M21 32h14" fill="none" stroke="currentColor" stroke-width="4" stroke-linecap="round"/>
    <circle cx="45" cy="43" r="7" fill="none" stroke="currentColor" stroke-width="4"/>
    <path d="m42 49-4 9 7-4 7 4-4-9" fill="none" stroke="currentColor" stroke-width="4" stroke-linejoin="round"/>
  </symbol>

<symbol id="vuln-db" viewBox="0 0 64 64">
    <ellipse cx="32" cy="14" rx="18" ry="7" fill="none" stroke="currentColor" stroke-width="4"/>
    <path d="M14 14v25c0 4 8 7 18 7 4 0 8-.5 11-1.5M50 14v18" fill="none" stroke="currentColor" stroke-width="4" stroke-linecap="round"/>
    <path d="M14 27c0 4 8 7 18 7 5 0 10-.8 13-2" fill="none" stroke="currentColor" stroke-width="4"/>
    <path d="M49 38v10M49 56h.1" fill="none" stroke="currentColor" stroke-width="5" stroke-linecap="round"/>
  </symbol>

</svg>
